<mxfile host="app.diagrams.net" modified="2020-11-02T22:07:23.061Z" agent="5.0 (Macintosh; Intel Mac OS X 10_15_7) AppleWebKit/537.36 (KHTML, like Gecko) Chrome/86.0.4240.111 Safari/537.36" etag="yZjcrTzdch8CNAtkcVJr" version="13.8.8" type="github">
  <diagram id="iKQWSWvl_KhY-TkC1FsQ" name="Page-1">
    <mxGraphModel dx="1158" dy="511" grid="1" gridSize="10" guides="1" tooltips="1" connect="1" arrows="1" fold="1" page="1" pageScale="1" pageWidth="850" pageHeight="1100" background="#FFFFFF" math="0" shadow="0">
      <root>
        <mxCell id="0" />
        <mxCell id="1" parent="0" />
        <mxCell id="6ict2WQ5s-b1KP5LFsGP-20" value="" style="rounded=0;whiteSpace=wrap;html=1;" vertex="1" parent="1">
          <mxGeometry width="860" height="420" as="geometry" />
        </mxCell>
        <mxCell id="y3iVWPoA_y2creooDI88-25" style="edgeStyle=none;rounded=0;orthogonalLoop=1;jettySize=auto;html=1;exitX=0.88;exitY=0.5;exitDx=0;exitDy=0;exitPerimeter=0;entryX=0.5;entryY=0;entryDx=0;entryDy=0;entryPerimeter=0;" parent="1" source="y3iVWPoA_y2creooDI88-3" target="y3iVWPoA_y2creooDI88-6" edge="1">
          <mxGeometry relative="1" as="geometry" />
        </mxCell>
        <mxCell id="y3iVWPoA_y2creooDI88-49" value="3. Code checkout" style="edgeLabel;html=1;align=center;verticalAlign=middle;resizable=0;points=[];rotation=45;" parent="y3iVWPoA_y2creooDI88-25" vertex="1" connectable="0">
          <mxGeometry x="-0.0508" y="1" relative="1" as="geometry">
            <mxPoint x="7.49" y="-9.15" as="offset" />
          </mxGeometry>
        </mxCell>
        <mxCell id="6ict2WQ5s-b1KP5LFsGP-18" value="12 Analyze Build Job Reports" style="edgeStyle=none;rounded=0;orthogonalLoop=1;jettySize=auto;html=1;exitX=0;exitY=0.93;exitDx=0;exitDy=0;exitPerimeter=0;" edge="1" parent="1" source="y3iVWPoA_y2creooDI88-3" target="y3iVWPoA_y2creooDI88-28">
          <mxGeometry x="-0.1303" y="11" relative="1" as="geometry">
            <mxPoint as="offset" />
          </mxGeometry>
        </mxCell>
        <mxCell id="y3iVWPoA_y2creooDI88-3" value="" style="fontColor=#0066CC;verticalAlign=top;verticalLabelPosition=bottom;labelPosition=center;align=center;html=1;outlineConnect=0;fillColor=#CCCCCC;strokeColor=#6881B3;gradientColor=none;gradientDirection=north;strokeWidth=2;shape=mxgraph.networks.server_storage;" parent="1" vertex="1">
          <mxGeometry x="255" y="37" width="45" height="50" as="geometry" />
        </mxCell>
        <mxCell id="y3iVWPoA_y2creooDI88-24" style="edgeStyle=none;rounded=0;orthogonalLoop=1;jettySize=auto;html=1;exitX=0.88;exitY=0.5;exitDx=0;exitDy=0;exitPerimeter=0;entryX=0;entryY=0.93;entryDx=0;entryDy=0;entryPerimeter=0;" parent="1" source="y3iVWPoA_y2creooDI88-4" target="y3iVWPoA_y2creooDI88-6" edge="1">
          <mxGeometry relative="1" as="geometry" />
        </mxCell>
        <mxCell id="y3iVWPoA_y2creooDI88-53" value="4. Load dependencies" style="edgeLabel;html=1;align=center;verticalAlign=middle;resizable=0;points=[];rotation=-30;" parent="y3iVWPoA_y2creooDI88-24" vertex="1" connectable="0">
          <mxGeometry x="-0.108" y="-1" relative="1" as="geometry">
            <mxPoint x="2.389999999999999" y="-8.43" as="offset" />
          </mxGeometry>
        </mxCell>
        <mxCell id="y3iVWPoA_y2creooDI88-4" value="" style="fontColor=#0066CC;verticalAlign=top;verticalLabelPosition=bottom;labelPosition=center;align=center;html=1;outlineConnect=0;fillColor=#CCCCCC;strokeColor=#6881B3;gradientColor=none;gradientDirection=north;strokeWidth=2;shape=mxgraph.networks.server_storage;" parent="1" vertex="1">
          <mxGeometry x="210" y="290" width="45" height="50" as="geometry" />
        </mxCell>
        <mxCell id="y3iVWPoA_y2creooDI88-22" style="rounded=0;orthogonalLoop=1;jettySize=auto;html=1;entryX=1;entryY=0.97;entryDx=0;entryDy=0;entryPerimeter=0;" parent="1" source="y3iVWPoA_y2creooDI88-6" target="y3iVWPoA_y2creooDI88-3" edge="1">
          <mxGeometry relative="1" as="geometry">
            <mxPoint x="310" y="62" as="targetPoint" />
          </mxGeometry>
        </mxCell>
        <mxCell id="y3iVWPoA_y2creooDI88-48" value="2. Trigger build job" style="edgeLabel;html=1;align=center;verticalAlign=middle;resizable=0;points=[];rotation=45;" parent="y3iVWPoA_y2creooDI88-22" vertex="1" connectable="0">
          <mxGeometry x="0.3739" relative="1" as="geometry">
            <mxPoint x="8.760000000000002" y="22.39" as="offset" />
          </mxGeometry>
        </mxCell>
        <mxCell id="y3iVWPoA_y2creooDI88-23" style="edgeStyle=none;rounded=0;orthogonalLoop=1;jettySize=auto;html=1;exitX=0;exitY=0.5;exitDx=0;exitDy=0;exitPerimeter=0;entryX=0.87;entryY=0.14;entryDx=0;entryDy=0;entryPerimeter=0;" parent="1" source="y3iVWPoA_y2creooDI88-6" target="y3iVWPoA_y2creooDI88-4" edge="1">
          <mxGeometry relative="1" as="geometry" />
        </mxCell>
        <mxCell id="6ict2WQ5s-b1KP5LFsGP-10" value="8. Store executables" style="edgeLabel;html=1;align=center;verticalAlign=middle;resizable=0;points=[];rotation=-30;" vertex="1" connectable="0" parent="y3iVWPoA_y2creooDI88-23">
          <mxGeometry x="-0.686" y="1" relative="1" as="geometry">
            <mxPoint x="-56.84" y="29.23" as="offset" />
          </mxGeometry>
        </mxCell>
        <mxCell id="y3iVWPoA_y2creooDI88-43" style="edgeStyle=none;rounded=0;orthogonalLoop=1;jettySize=auto;html=1;exitX=0.88;exitY=0.14;exitDx=0;exitDy=0;exitPerimeter=0;entryX=0;entryY=0;entryDx=0;entryDy=0;entryPerimeter=0;" parent="1" source="y3iVWPoA_y2creooDI88-6" target="y3iVWPoA_y2creooDI88-13" edge="1">
          <mxGeometry relative="1" as="geometry" />
        </mxCell>
        <mxCell id="6ict2WQ5s-b1KP5LFsGP-11" value="9. Deploy executables" style="edgeLabel;html=1;align=center;verticalAlign=middle;resizable=0;points=[];rotation=-25;" vertex="1" connectable="0" parent="y3iVWPoA_y2creooDI88-43">
          <mxGeometry x="0.0208" y="4" relative="1" as="geometry">
            <mxPoint x="1" as="offset" />
          </mxGeometry>
        </mxCell>
        <mxCell id="y3iVWPoA_y2creooDI88-44" style="edgeStyle=none;rounded=0;orthogonalLoop=1;jettySize=auto;html=1;exitX=0.88;exitY=0.5;exitDx=0;exitDy=0;exitPerimeter=0;entryX=0;entryY=0.5;entryDx=0;entryDy=0;entryPerimeter=0;" parent="1" source="y3iVWPoA_y2creooDI88-6" target="y3iVWPoA_y2creooDI88-8" edge="1">
          <mxGeometry relative="1" as="geometry" />
        </mxCell>
        <mxCell id="6ict2WQ5s-b1KP5LFsGP-15" value="11. Deploy tested executables" style="edgeLabel;html=1;align=center;verticalAlign=middle;resizable=0;points=[];" vertex="1" connectable="0" parent="y3iVWPoA_y2creooDI88-44">
          <mxGeometry x="0.8378" y="3" relative="1" as="geometry">
            <mxPoint x="-106" y="3" as="offset" />
          </mxGeometry>
        </mxCell>
        <mxCell id="y3iVWPoA_y2creooDI88-45" style="edgeStyle=none;rounded=0;orthogonalLoop=1;jettySize=auto;html=1;exitX=0.95;exitY=0.95;exitDx=0;exitDy=0;exitPerimeter=0;entryX=0.06;entryY=0.5;entryDx=0;entryDy=0;entryPerimeter=0;" parent="1" source="y3iVWPoA_y2creooDI88-6" target="y3iVWPoA_y2creooDI88-9" edge="1">
          <mxGeometry relative="1" as="geometry" />
        </mxCell>
        <mxCell id="6ict2WQ5s-b1KP5LFsGP-16" value="11. Deploy tested executables" style="edgeLabel;html=1;align=center;verticalAlign=middle;resizable=0;points=[];rotation=15;" vertex="1" connectable="0" parent="y3iVWPoA_y2creooDI88-45">
          <mxGeometry x="0.0242" y="1" relative="1" as="geometry">
            <mxPoint x="1" as="offset" />
          </mxGeometry>
        </mxCell>
        <mxCell id="y3iVWPoA_y2creooDI88-61" style="edgeStyle=none;rounded=0;orthogonalLoop=1;jettySize=auto;html=1;entryX=0.5;entryY=0;entryDx=0;entryDy=0;" parent="1" source="y3iVWPoA_y2creooDI88-6" target="y3iVWPoA_y2creooDI88-58" edge="1">
          <mxGeometry relative="1" as="geometry" />
        </mxCell>
        <mxCell id="6ict2WQ5s-b1KP5LFsGP-5" value="5" style="edgeLabel;html=1;align=center;verticalAlign=middle;resizable=0;points=[];" vertex="1" connectable="0" parent="y3iVWPoA_y2creooDI88-61">
          <mxGeometry x="-0.0921" y="2" relative="1" as="geometry">
            <mxPoint as="offset" />
          </mxGeometry>
        </mxCell>
        <mxCell id="6ict2WQ5s-b1KP5LFsGP-13" style="edgeStyle=none;rounded=0;orthogonalLoop=1;jettySize=auto;html=1;exitX=0.88;exitY=0.14;exitDx=0;exitDy=0;exitPerimeter=0;entryX=0;entryY=0.5;entryDx=0;entryDy=0;entryPerimeter=0;" edge="1" parent="1" source="y3iVWPoA_y2creooDI88-6" target="y3iVWPoA_y2creooDI88-13">
          <mxGeometry relative="1" as="geometry" />
        </mxCell>
        <mxCell id="6ict2WQ5s-b1KP5LFsGP-14" value="10. Integration Tests" style="edgeLabel;html=1;align=center;verticalAlign=middle;resizable=0;points=[];rotation=-20;" vertex="1" connectable="0" parent="6ict2WQ5s-b1KP5LFsGP-13">
          <mxGeometry x="0.1239" relative="1" as="geometry">
            <mxPoint as="offset" />
          </mxGeometry>
        </mxCell>
        <mxCell id="y3iVWPoA_y2creooDI88-6" value="" style="fontColor=#0066CC;verticalAlign=top;verticalLabelPosition=bottom;labelPosition=center;align=center;html=1;outlineConnect=0;fillColor=#CCCCCC;strokeColor=#6881B3;gradientColor=none;gradientDirection=north;strokeWidth=2;shape=mxgraph.networks.proxy_server;" parent="1" vertex="1">
          <mxGeometry x="400" y="177" width="50" height="50" as="geometry" />
        </mxCell>
        <mxCell id="y3iVWPoA_y2creooDI88-9" value="" style="html=1;outlineConnect=0;fillColor=#CCCCCC;strokeColor=#6881B3;gradientColor=none;gradientDirection=north;strokeWidth=2;shape=mxgraph.networks.cloud;fontColor=#ffffff;" parent="1" vertex="1">
          <mxGeometry x="745" y="287" width="90" height="50" as="geometry" />
        </mxCell>
        <mxCell id="y3iVWPoA_y2creooDI88-10" value="" style="group" parent="1" vertex="1" connectable="0">
          <mxGeometry x="740" y="152" width="100" height="100" as="geometry" />
        </mxCell>
        <mxCell id="y3iVWPoA_y2creooDI88-7" value="" style="fontColor=#0066CC;verticalAlign=top;verticalLabelPosition=bottom;labelPosition=center;align=center;html=1;outlineConnect=0;fillColor=#CCCCCC;strokeColor=#6881B3;gradientColor=none;gradientDirection=north;strokeWidth=2;shape=mxgraph.networks.rack;" parent="y3iVWPoA_y2creooDI88-10" vertex="1">
          <mxGeometry x="50" width="50" height="100" as="geometry" />
        </mxCell>
        <mxCell id="y3iVWPoA_y2creooDI88-8" value="" style="fontColor=#0066CC;verticalAlign=top;verticalLabelPosition=bottom;labelPosition=center;align=center;html=1;outlineConnect=0;fillColor=#CCCCCC;strokeColor=#6881B3;gradientColor=none;gradientDirection=north;strokeWidth=2;shape=mxgraph.networks.rack;" parent="y3iVWPoA_y2creooDI88-10" vertex="1">
          <mxGeometry width="50" height="100" as="geometry" />
        </mxCell>
        <mxCell id="y3iVWPoA_y2creooDI88-11" value="" style="group" parent="1" vertex="1" connectable="0">
          <mxGeometry x="750" y="47" width="80" height="60" as="geometry" />
        </mxCell>
        <mxCell id="y3iVWPoA_y2creooDI88-12" value="" style="fontColor=#0066CC;verticalAlign=top;verticalLabelPosition=bottom;labelPosition=center;align=center;html=1;outlineConnect=0;fillColor=#CCCCCC;strokeColor=#6881B3;gradientColor=none;gradientDirection=north;strokeWidth=2;shape=mxgraph.networks.rack;" parent="y3iVWPoA_y2creooDI88-11" vertex="1">
          <mxGeometry x="40" width="40" height="60" as="geometry" />
        </mxCell>
        <mxCell id="y3iVWPoA_y2creooDI88-13" value="" style="fontColor=#0066CC;verticalAlign=top;verticalLabelPosition=bottom;labelPosition=center;align=center;html=1;outlineConnect=0;fillColor=#CCCCCC;strokeColor=#6881B3;gradientColor=none;gradientDirection=north;strokeWidth=2;shape=mxgraph.networks.rack;" parent="y3iVWPoA_y2creooDI88-11" vertex="1">
          <mxGeometry width="40" height="60" as="geometry" />
        </mxCell>
        <mxCell id="y3iVWPoA_y2creooDI88-20" value="" style="group" parent="1" vertex="1" connectable="0">
          <mxGeometry x="10" y="37" width="120" height="70" as="geometry" />
        </mxCell>
        <mxCell id="y3iVWPoA_y2creooDI88-17" value="" style="group" parent="y3iVWPoA_y2creooDI88-20" vertex="1" connectable="0">
          <mxGeometry x="15" width="90" height="50" as="geometry" />
        </mxCell>
        <mxCell id="y3iVWPoA_y2creooDI88-1" value="" style="fontColor=#0066CC;verticalAlign=top;verticalLabelPosition=bottom;labelPosition=center;align=center;html=1;outlineConnect=0;fillColor=#CCCCCC;strokeColor=#6881B3;gradientColor=none;gradientDirection=north;strokeWidth=2;shape=mxgraph.networks.users;" parent="y3iVWPoA_y2creooDI88-17" vertex="1">
          <mxGeometry width="40" height="50" as="geometry" />
        </mxCell>
        <mxCell id="y3iVWPoA_y2creooDI88-2" value="" style="fontColor=#0066CC;verticalAlign=top;verticalLabelPosition=bottom;labelPosition=center;align=center;html=1;outlineConnect=0;fillColor=#CCCCCC;strokeColor=#6881B3;gradientColor=none;gradientDirection=north;strokeWidth=2;shape=mxgraph.networks.laptop;" parent="y3iVWPoA_y2creooDI88-17" vertex="1">
          <mxGeometry x="40" y="10" width="50" height="30" as="geometry" />
        </mxCell>
        <mxCell id="y3iVWPoA_y2creooDI88-19" value="&lt;b&gt;Development Team&lt;/b&gt;" style="text;html=1;align=center;verticalAlign=middle;resizable=0;points=[];autosize=1;" parent="y3iVWPoA_y2creooDI88-20" vertex="1">
          <mxGeometry y="50" width="120" height="20" as="geometry" />
        </mxCell>
        <mxCell id="y3iVWPoA_y2creooDI88-21" style="edgeStyle=orthogonalEdgeStyle;rounded=0;orthogonalLoop=1;jettySize=auto;html=1;entryX=0;entryY=0.5;entryDx=0;entryDy=0;entryPerimeter=0;" parent="1" source="y3iVWPoA_y2creooDI88-2" target="y3iVWPoA_y2creooDI88-3" edge="1">
          <mxGeometry relative="1" as="geometry" />
        </mxCell>
        <mxCell id="y3iVWPoA_y2creooDI88-47" value="1. Push Code change" style="edgeLabel;html=1;align=center;verticalAlign=middle;resizable=0;points=[];" parent="y3iVWPoA_y2creooDI88-21" vertex="1" connectable="0">
          <mxGeometry x="-0.2" y="-1" relative="1" as="geometry">
            <mxPoint x="9" y="-1" as="offset" />
          </mxGeometry>
        </mxCell>
        <mxCell id="y3iVWPoA_y2creooDI88-36" value="" style="group" parent="1" vertex="1" connectable="0">
          <mxGeometry x="364" y="320" width="120" height="30" as="geometry" />
        </mxCell>
        <mxCell id="y3iVWPoA_y2creooDI88-35" value="" style="rounded=0;whiteSpace=wrap;html=1;" parent="y3iVWPoA_y2creooDI88-36" vertex="1">
          <mxGeometry width="120" height="30" as="geometry" />
        </mxCell>
        <mxCell id="y3iVWPoA_y2creooDI88-30" value="" style="pointerEvents=1;shadow=0;dashed=0;html=1;strokeColor=none;fillColor=#434445;aspect=fixed;labelPosition=center;verticalLabelPosition=bottom;verticalAlign=top;align=center;outlineConnect=0;shape=mxgraph.vvd.vrops;" parent="y3iVWPoA_y2creooDI88-36" vertex="1">
          <mxGeometry x="2.299999999999997" y="5" width="19.166666666666668" height="19.166666666666668" as="geometry" />
        </mxCell>
        <mxCell id="y3iVWPoA_y2creooDI88-31" value="Unit/Sanity Tests" style="text;html=1;align=center;verticalAlign=middle;resizable=0;points=[];autosize=1;" parent="y3iVWPoA_y2creooDI88-36" vertex="1">
          <mxGeometry x="20" y="5" width="100" height="20" as="geometry" />
        </mxCell>
        <mxCell id="y3iVWPoA_y2creooDI88-38" value="" style="group" parent="1" vertex="1" connectable="0">
          <mxGeometry x="364" y="380" width="130" height="30" as="geometry" />
        </mxCell>
        <mxCell id="y3iVWPoA_y2creooDI88-34" value="" style="rounded=0;whiteSpace=wrap;html=1;" parent="y3iVWPoA_y2creooDI88-38" vertex="1">
          <mxGeometry width="120" height="30" as="geometry" />
        </mxCell>
        <mxCell id="y3iVWPoA_y2creooDI88-27" value="" style="pointerEvents=1;shadow=0;dashed=0;html=1;strokeColor=none;fillColor=#434445;aspect=fixed;labelPosition=center;verticalLabelPosition=bottom;verticalAlign=top;align=center;outlineConnect=0;shape=mxgraph.vvd.security;" parent="y3iVWPoA_y2creooDI88-38" vertex="1">
          <mxGeometry y="5" width="15.4" height="20" as="geometry" />
        </mxCell>
        <mxCell id="y3iVWPoA_y2creooDI88-37" value="Code Quality Scan" style="text;html=1;align=center;verticalAlign=middle;resizable=0;points=[];autosize=1;" parent="y3iVWPoA_y2creooDI88-38" vertex="1">
          <mxGeometry x="10" y="5" width="120" height="20" as="geometry" />
        </mxCell>
        <mxCell id="y3iVWPoA_y2creooDI88-51" value="&lt;b&gt;Source Code Repository&lt;/b&gt;" style="text;html=1;align=center;verticalAlign=middle;resizable=0;points=[];autosize=1;" parent="1" vertex="1">
          <mxGeometry x="197.5" y="17" width="160" height="20" as="geometry" />
        </mxCell>
        <mxCell id="y3iVWPoA_y2creooDI88-52" value="&lt;b&gt;Binary/Executable File Repository&lt;/b&gt;" style="text;html=1;align=center;verticalAlign=middle;resizable=0;points=[];autosize=1;" parent="1" vertex="1">
          <mxGeometry x="127.5" y="340" width="210" height="20" as="geometry" />
        </mxCell>
        <mxCell id="y3iVWPoA_y2creooDI88-59" value="" style="group" parent="1" vertex="1" connectable="0">
          <mxGeometry x="364.5" y="260" width="119.5" height="30" as="geometry" />
        </mxCell>
        <mxCell id="y3iVWPoA_y2creooDI88-58" value="" style="rounded=0;whiteSpace=wrap;html=1;" parent="y3iVWPoA_y2creooDI88-59" vertex="1">
          <mxGeometry width="119.5" height="30" as="geometry" />
        </mxCell>
        <mxCell id="y3iVWPoA_y2creooDI88-56" value="" style="pointerEvents=1;shadow=0;dashed=0;html=1;strokeColor=none;fillColor=#434445;aspect=fixed;labelPosition=center;verticalLabelPosition=bottom;verticalAlign=top;align=center;outlineConnect=0;shape=mxgraph.vvd.vrealize_automation;" parent="y3iVWPoA_y2creooDI88-59" vertex="1">
          <mxGeometry y="6.363636363636363" width="17.318840579710145" height="17.318840579710145" as="geometry" />
        </mxCell>
        <mxCell id="y3iVWPoA_y2creooDI88-57" value="Compile/Build" style="text;html=1;align=center;verticalAlign=middle;resizable=0;points=[];autosize=1;" parent="y3iVWPoA_y2creooDI88-59" vertex="1">
          <mxGeometry x="20.782608695652172" y="6.363636363636363" width="90" height="20" as="geometry" />
        </mxCell>
        <mxCell id="y3iVWPoA_y2creooDI88-64" style="edgeStyle=none;rounded=0;orthogonalLoop=1;jettySize=auto;html=1;entryX=0.5;entryY=0;entryDx=0;entryDy=0;exitX=0.5;exitY=1;exitDx=0;exitDy=0;" parent="1" source="y3iVWPoA_y2creooDI88-58" target="y3iVWPoA_y2creooDI88-35" edge="1">
          <mxGeometry relative="1" as="geometry">
            <mxPoint x="434.67672413793093" y="237" as="sourcePoint" />
            <mxPoint x="434.25" y="270" as="targetPoint" />
          </mxGeometry>
        </mxCell>
        <mxCell id="6ict2WQ5s-b1KP5LFsGP-6" value="6" style="edgeLabel;html=1;align=center;verticalAlign=middle;resizable=0;points=[];" vertex="1" connectable="0" parent="y3iVWPoA_y2creooDI88-64">
          <mxGeometry x="-0.201" y="2" relative="1" as="geometry">
            <mxPoint as="offset" />
          </mxGeometry>
        </mxCell>
        <mxCell id="y3iVWPoA_y2creooDI88-65" style="edgeStyle=none;rounded=0;orthogonalLoop=1;jettySize=auto;html=1;entryX=0.5;entryY=0;entryDx=0;entryDy=0;exitX=0.5;exitY=1;exitDx=0;exitDy=0;" parent="1" source="y3iVWPoA_y2creooDI88-35" target="y3iVWPoA_y2creooDI88-34" edge="1">
          <mxGeometry relative="1" as="geometry">
            <mxPoint x="444.67672413793093" y="247" as="sourcePoint" />
            <mxPoint x="444.25" y="280" as="targetPoint" />
          </mxGeometry>
        </mxCell>
        <mxCell id="6ict2WQ5s-b1KP5LFsGP-7" value="7" style="edgeLabel;html=1;align=center;verticalAlign=middle;resizable=0;points=[];" vertex="1" connectable="0" parent="y3iVWPoA_y2creooDI88-65">
          <mxGeometry x="-0.2" y="1" relative="1" as="geometry">
            <mxPoint as="offset" />
          </mxGeometry>
        </mxCell>
        <mxCell id="6ict2WQ5s-b1KP5LFsGP-1" value="&lt;b&gt;Orchestration Server&lt;/b&gt;" style="text;html=1;align=center;verticalAlign=middle;resizable=0;points=[];autosize=1;" vertex="1" parent="1">
          <mxGeometry x="357.5" y="183.75" width="130" height="20" as="geometry" />
        </mxCell>
        <mxCell id="6ict2WQ5s-b1KP5LFsGP-2" value="&lt;b&gt;Cloud Env&lt;/b&gt;" style="text;html=1;align=center;verticalAlign=middle;resizable=0;points=[];autosize=1;" vertex="1" parent="1">
          <mxGeometry x="755" y="340" width="70" height="20" as="geometry" />
        </mxCell>
        <mxCell id="6ict2WQ5s-b1KP5LFsGP-3" value="&lt;b&gt;Traditional Production&lt;br&gt;Servers&lt;/b&gt;" style="text;html=1;align=center;verticalAlign=middle;resizable=0;points=[];autosize=1;" vertex="1" parent="1">
          <mxGeometry x="715" y="252" width="140" height="30" as="geometry" />
        </mxCell>
        <mxCell id="6ict2WQ5s-b1KP5LFsGP-4" value="&lt;b&gt;Dev/Test Env&lt;/b&gt;" style="text;html=1;align=center;verticalAlign=middle;resizable=0;points=[];autosize=1;" vertex="1" parent="1">
          <mxGeometry x="745" y="110" width="90" height="20" as="geometry" />
        </mxCell>
        <mxCell id="6ict2WQ5s-b1KP5LFsGP-17" value="" style="group" vertex="1" connectable="0" parent="1">
          <mxGeometry x="20" y="158.75" width="120" height="86.5" as="geometry" />
        </mxCell>
        <mxCell id="y3iVWPoA_y2creooDI88-28" value="" style="pointerEvents=1;shadow=0;dashed=0;html=1;strokeColor=none;fillColor=#434445;aspect=fixed;labelPosition=center;verticalLabelPosition=bottom;verticalAlign=top;align=center;outlineConnect=0;shape=mxgraph.vvd.nsx_dashboard;" parent="6ict2WQ5s-b1KP5LFsGP-17" vertex="1">
          <mxGeometry x="24.240000000000002" width="71.51" height="66.5" as="geometry" />
        </mxCell>
        <mxCell id="y3iVWPoA_y2creooDI88-46" value="&lt;b&gt;Reports/Feedback&lt;/b&gt;" style="text;html=1;align=center;verticalAlign=middle;resizable=0;points=[];autosize=1;" parent="6ict2WQ5s-b1KP5LFsGP-17" vertex="1">
          <mxGeometry y="66.5" width="120" height="20" as="geometry" />
        </mxCell>
        <mxCell id="6ict2WQ5s-b1KP5LFsGP-19" value="13. Start over" style="edgeStyle=none;rounded=0;orthogonalLoop=1;jettySize=auto;html=1;entryX=0.592;entryY=1;entryDx=0;entryDy=0;entryPerimeter=0;" edge="1" parent="1" source="y3iVWPoA_y2creooDI88-28" target="y3iVWPoA_y2creooDI88-19">
          <mxGeometry relative="1" as="geometry" />
        </mxCell>
      </root>
    </mxGraphModel>
  </diagram>
</mxfile>
